<?xml version="1.0" encoding="UTF-8" standalone="no"?>
<!-- Generator: Adobe Illustrator 16.0.0, SVG Export Plug-In . SVG Version: 6.00 Build 0)  -->

<svg
   xmlns:dc="http://purl.org/dc/elements/1.1/"
   xmlns:cc="http://creativecommons.org/ns#"
   xmlns:rdf="http://www.w3.org/1999/02/22-rdf-syntax-ns#"
   xmlns:svg="http://www.w3.org/2000/svg"
   xmlns="http://www.w3.org/2000/svg"
   xmlns:sodipodi="http://sodipodi.sourceforge.net/DTD/sodipodi-0.dtd"
   xmlns:inkscape="http://www.inkscape.org/namespaces/inkscape"
   version="1.1"
   id="Layer_1"
   x="0px"
   y="0px"
   width="434"
   height="434"
   viewBox="0 0 434 434"
   enable-background="new 0 0 512 512"
   xml:space="preserve"
   inkscape:version="0.48.4 r9939"
   sodipodi:docname="Artwork Icon.svg"><metadata
   id="metadata13"><rdf:RDF><cc:Work
       rdf:about=""><dc:format>image/svg+xml</dc:format><dc:type
         rdf:resource="http://purl.org/dc/dcmitype/StillImage" /></cc:Work></rdf:RDF></metadata><defs
   id="defs11" /><sodipodi:namedview
   pagecolor="#ffffff"
   bordercolor="#666666"
   borderopacity="1"
   objecttolerance="10"
   gridtolerance="10"
   guidetolerance="10"
   inkscape:pageopacity="0"
   inkscape:pageshadow="2"
   inkscape:window-width="1920"
   inkscape:window-height="1014"
   id="namedview9"
   showgrid="false"
   inkscape:zoom="1.3037281"
   inkscape:cx="334.19683"
   inkscape:cy="202.68334"
   inkscape:window-x="-8"
   inkscape:window-y="-8"
   inkscape:window-maximized="1"
   inkscape:current-layer="Layer_1" />
<g
   id="g3"
   transform="matrix(1.0000991,0,0,0.99909203,-39.025363,-38.767426)">
	<path
   d="m 48.451,464.828 c 40.023,-0.315 45.01,-9.955 58.052,-50.132 24.057,-63.408 132.419,16.591 65.269,44.374 -67.15,27.782 -163.344,6.073 -123.321,5.758 z"
   id="path5"
   inkscape:connector-curvature="0" />
	<path
   d="M 458.857,46.902 C 439.44,31.255 407.265,38.964 386.993,64.121 L 181.645,355.849 c -20.272,25.154 -20.171,20.347 -0.754,35.992 19.417,15.648 14.738,16.77 35.011,-8.388 L 457.308,120.784 c 20.273,-25.156 20.967,-58.234 1.549,-73.882 z m -52.792,34.923 c 0,0 -3,-3.5 -13,-11.5 15,-24.5 44.5,-20 44.5,-20 -28,16.5 -31.5,31.5 -31.5,31.5 z"
   id="path7"
   inkscape:connector-curvature="0" />
</g>
</svg>